<svg width="690" height="555" viewBox="0 0 690 555" fill="none" xmlns="http://www.w3.org/2000/svg">
<g clip-path="url(#clip0_44_78)">
<path d="M479.89 539.425L467.133 539.424L461.065 490.221H479.892L479.89 539.425Z" fill="#FFB6B6"/>
<path d="M479.549 535.258L465.929 529.718L465.539 529.558L458.019 535.258C453.773 535.259 449.702 536.946 446.699 539.948C443.697 542.951 442.01 547.022 442.009 551.268V551.788H483.139V535.258H479.549Z" fill="#2F2E41"/>
<path d="M595.153 522.84L583.736 528.53L556.355 487.2L573.206 478.802L595.153 522.84Z" fill="#FFB6B6"/>
<path d="M596.209 517.658L593.289 519.108L592.989 519.258L578.349 520.388L577.909 520.418L573.719 528.868C571.838 529.806 570.159 531.105 568.78 532.692C567.4 534.279 566.347 536.122 565.68 538.115C565.013 540.109 564.746 542.215 564.894 544.312C565.041 546.41 565.6 548.457 566.539 550.338L566.769 550.798L603.579 532.458L596.209 517.658Z" fill="#2F2E41"/>
<path d="M471.238 274.959L541.579 277.421L542.069 276.708C542.069 276.708 548.069 290.708 548.069 302.708C548.069 306.698 545.294 332.793 546.705 337.73C546.88 338.344 545.673 339.849 546.069 342.708C546.326 344.564 547.743 343.137 548.069 345.708C548.303 347.554 545.808 348.573 546.069 350.708C546.354 353.041 549.786 360.597 550.095 363.192C553.384 390.818 557.762 430.84 557.762 430.84C557.762 430.84 575.349 477.943 579.069 478.708C585.314 479.993 589.53 491.347 586.069 493.708C584.421 494.833 563.125 502.397 563.125 502.397C561.955 502.609 558.294 500.772 560.626 496.43C561.055 495.631 558.495 497.665 558.069 496.708C557.617 495.691 558.505 491.641 557.987 490.512C553.333 480.369 546.187 466.312 539.415 459.094C529.409 448.43 523.073 434.848 521.33 420.329L505.798 334.204L500.474 358.356L496.069 362.708L497.278 372.857L497.069 382.708L486.069 423.708C486.069 423.708 484.42 500.277 487.069 502.708C488.504 504.025 494.594 520.246 483.069 521.708L462.131 520.093C462.131 520.093 459.31 514.148 460.72 512.032C462.131 509.916 462.046 510.494 460.325 507.031C458.604 503.568 459.31 497.701 459.31 497.701C456.567 470.127 455.485 442.412 456.069 414.708C457.119 369.205 463.48 316.931 463.48 315.866C463.533 314.777 463.332 313.691 462.894 312.693V309.821L465.596 299.644L471.238 274.959Z" fill="#1E1323"/>
<path d="M570.225 283.56C585.568 283.56 598.005 271.122 598.005 255.78C598.005 240.438 585.568 228 570.225 228C554.883 228 542.445 240.438 542.445 255.78C542.445 271.122 554.883 283.56 570.225 283.56Z" fill="#9E54AE"/>
<path d="M566.435 270.238C565.956 270.238 565.482 270.126 565.053 269.912C564.624 269.697 564.251 269.386 563.963 269.002L556.385 258.897C556.141 258.572 555.964 258.203 555.863 257.809C555.763 257.416 555.74 257.007 555.798 256.606C555.855 256.204 555.991 255.817 556.198 255.468C556.405 255.119 556.678 254.814 557.003 254.571C557.327 254.327 557.697 254.15 558.09 254.049C558.483 253.949 558.892 253.926 559.294 253.984C559.696 254.041 560.082 254.177 560.431 254.384C560.78 254.591 561.085 254.864 561.329 255.189L566.287 261.799L579.022 242.697C579.247 242.359 579.536 242.069 579.873 241.843C580.211 241.617 580.589 241.459 580.987 241.379C581.385 241.299 581.795 241.299 582.194 241.378C582.592 241.456 582.971 241.613 583.309 241.838C583.647 242.063 583.937 242.353 584.163 242.69C584.389 243.028 584.546 243.406 584.625 243.804C584.705 244.203 584.705 244.613 584.626 245.011C584.547 245.409 584.39 245.788 584.164 246.126L569.007 268.862C568.733 269.273 568.364 269.613 567.931 269.852C567.499 270.091 567.015 270.223 566.521 270.237C566.493 270.238 566.464 270.238 566.435 270.238Z" fill="white"/>
<path d="M583.962 285.148C584.232 284.012 584.251 282.831 584.016 281.687C583.78 280.543 583.297 279.465 582.6 278.528C581.903 277.591 581.009 276.818 579.981 276.264C578.953 275.71 577.816 275.389 576.65 275.321L562.415 226.823L552.786 237.998L568.106 283.407C568.123 285.373 568.861 287.265 570.18 288.723C571.498 290.182 573.306 291.106 575.26 291.32C577.215 291.535 579.18 291.025 580.784 289.888C582.387 288.75 583.518 287.064 583.962 285.148Z" fill="#FFB8B8"/>
<path d="M573.919 261.488L572.069 254.708L574.189 250.658L574.029 250.188L573.389 248.368L570.069 245.708L571.259 242.318L567.059 230.388L566.029 228.318L541.919 179.908L536.139 168.298L534.799 166.198L530.629 159.658L524.929 150.728C524.023 149.301 522.842 148.068 521.455 147.102C520.068 146.135 518.502 145.454 516.849 145.098C516.315 144.981 515.774 144.897 515.229 144.848L514.839 144.818C513.866 144.765 512.89 144.822 511.929 144.988H511.909C510.217 145.282 508.603 145.922 507.169 146.868C506.041 147.599 505.035 148.503 504.189 149.548C502.243 151.963 501.231 154.998 501.339 158.098L501.519 162.978L501.699 167.418L510.159 182.718L510.709 183.718L510.719 183.748L536.749 230.848L544.599 245.048L545.789 247.208L551.069 250.708L549.659 254.228L550.069 259.708L554.559 263.098L561.069 269.708L561.329 270.248L563.329 269.238L563.519 269.138L563.969 269.008L570.159 267.138L573.919 266.008L574.039 265.968L575.069 265.708L573.919 261.488Z" fill="#C898E1"/>
<path d="M680.929 481.648C679.044 479.251 676.483 477.473 673.578 476.544C670.673 475.616 667.556 475.579 664.629 476.438L663.989 476.628L658.249 499.038C657.389 495.698 655.549 488.158 654.389 480.778L654.289 480.168L653.719 480.418C647.719 483.071 642.077 486.471 636.929 490.538C627.809 497.854 620.391 507.068 615.192 517.54C609.992 528.012 607.135 539.491 606.819 551.178L606.809 551.608L606.799 551.878L607.559 551.608L623.869 545.778C631.09 546.415 638.362 545.431 645.155 542.898C651.947 540.365 658.088 536.347 663.129 531.138C669.719 524.188 674.239 515.248 678.609 506.598C679.889 504.078 681.199 501.478 682.539 498.978C684.034 496.26 684.68 493.156 684.393 490.066C684.106 486.977 682.899 484.045 680.929 481.648Z" fill="#F2F2F2"/>
<path d="M262.385 109.64H260.385V32.597H405.042V34.597H262.385V109.64Z" fill="#3F3D56"/>
<path d="M427.225 55.56C442.567 55.56 455.005 43.1225 455.005 27.78C455.005 12.4375 442.567 0 427.225 0C411.882 0 399.445 12.4375 399.445 27.78C399.445 43.1225 411.882 55.56 427.225 55.56Z" fill="#9E54AE"/>
<path d="M423.435 42.2382C422.956 42.2382 422.482 42.1265 422.053 41.9119C421.624 41.6973 421.251 41.3857 420.963 41.0019L413.385 30.8966C413.141 30.572 412.964 30.2026 412.863 29.8095C412.763 29.4164 412.74 29.0073 412.798 28.6056C412.855 28.2039 412.991 27.8174 413.198 27.4682C413.405 27.119 413.678 26.814 414.003 26.5706C414.327 26.3271 414.697 26.15 415.09 26.0493C415.483 25.9486 415.892 25.9263 416.294 25.9837C416.696 26.0411 417.082 26.177 417.431 26.3838C417.78 26.5906 418.085 26.8641 418.329 27.1887L423.287 33.7993L436.022 14.6974C436.247 14.3593 436.536 14.0689 436.873 13.8427C437.211 13.6166 437.589 13.4591 437.987 13.3793C438.385 13.2994 438.795 13.2989 439.194 13.3776C439.592 13.4563 439.971 13.6127 440.309 13.838C440.647 14.0632 440.937 14.3528 441.163 14.6902C441.389 15.0277 441.546 15.4063 441.625 15.8045C441.705 16.2027 441.705 16.6127 441.626 17.0109C441.547 17.4092 441.39 17.788 441.164 18.1256L426.007 40.8621C425.733 41.2733 425.364 41.6127 424.931 41.852C424.499 42.0912 424.015 42.2233 423.521 42.2372C423.493 42.2377 423.464 42.2382 423.435 42.2382Z" fill="white"/>
<path d="M164.385 296.685H162.385V373.728H307.042V371.728H164.385V296.685Z" fill="#3F3D56"/>
<path d="M329.225 401.56C344.567 401.56 357.005 389.122 357.005 373.78C357.005 358.438 344.567 346 329.225 346C313.882 346 301.445 358.438 301.445 373.78C301.445 389.122 313.882 401.56 329.225 401.56Z" fill="#9E54AE"/>
<path d="M325.435 388.238C324.956 388.238 324.482 388.126 324.053 387.912C323.624 387.697 323.251 387.386 322.963 387.002L315.385 376.897C315.141 376.572 314.964 376.203 314.863 375.809C314.763 375.416 314.74 375.007 314.798 374.606C314.855 374.204 314.991 373.817 315.198 373.468C315.405 373.119 315.678 372.814 316.003 372.571C316.327 372.327 316.697 372.15 317.09 372.049C317.483 371.949 317.892 371.926 318.294 371.984C318.696 372.041 319.082 372.177 319.431 372.384C319.78 372.591 320.085 372.864 320.329 373.189L325.287 379.799L338.022 360.697C338.247 360.359 338.536 360.069 338.873 359.843C339.211 359.617 339.589 359.459 339.987 359.379C340.385 359.299 340.795 359.299 341.194 359.378C341.592 359.456 341.971 359.613 342.309 359.838C342.647 360.063 342.937 360.353 343.163 360.69C343.389 361.028 343.546 361.406 343.625 361.805C343.705 362.203 343.705 362.613 343.626 363.011C343.547 363.409 343.39 363.788 343.164 364.126L328.007 386.862C327.733 387.273 327.364 387.613 326.931 387.852C326.499 388.091 326.015 388.223 325.521 388.237C325.493 388.238 325.464 388.238 325.435 388.238Z" fill="white"/>
<path d="M549.069 299.518C549.098 301.624 548.76 303.719 548.069 305.708L547.919 305.678C530.159 308.75 514.315 309.253 506.986 298.351C497.424 286.175 484.271 286.313 469.599 291.658L467.859 289.778L464.899 286.588L467.619 283.508L464.899 277.568L467.169 270.238L470.069 269.708L469.289 263.398L468.069 259.708L471.649 255.778L474.689 245.968L472.499 225.438C469.502 197.298 475.309 168.92 489.119 144.218L497.429 136.758L500.879 133.658L505.509 125.018L510.399 125.588L523.639 127.118L524.089 128.198L527.339 136.038L544.459 154.428L543.689 162.188L543.349 165.608L543.099 168.068L541.919 179.908L537.109 228.278L536.749 230.848L532.879 258.658C539.169 264.738 544.729 276.448 547.399 287.148C547.699 288.338 546.849 289.548 547.069 290.708C547.379 292.348 548.729 293.908 548.879 295.438C549.019 296.794 549.082 298.156 549.069 299.518Z" fill="#C898E1"/>
<path d="M515.161 121.922C527.861 121.922 538.157 111.626 538.157 98.9253C538.157 86.2248 527.861 75.9291 515.161 75.9291C502.46 75.9291 492.165 86.2248 492.165 98.9253C492.165 111.626 502.46 121.922 515.161 121.922Z" fill="#FFB6B6"/>
<path d="M542.882 92.6516C541.521 88.4086 537.788 84.8185 533.356 84.3493C533.692 81.5312 533.248 78.6749 532.073 76.0915C530.898 73.5081 529.037 71.2966 526.692 69.6978C524.347 68.099 521.608 67.1742 518.774 67.0241C515.94 66.874 513.119 67.5043 510.618 68.8464C510.087 68.208 509.4 67.7175 508.624 67.4225C507.848 67.1274 507.008 67.0379 506.187 67.1624C504.545 67.433 502.998 68.111 501.686 69.1345C498.428 71.5174 495.877 74.7391 494.305 78.4567C492.733 82.1743 492.198 86.2486 492.758 90.246C492.748 88.2183 493.646 92.1413 496.221 92.488C498.368 92.9198 500.412 93.7626 502.239 94.97C504.065 96.1772 506.102 97.031 508.244 97.4871C510.405 97.8032 510.962 106.467 509.419 112.047C509.126 113.105 508.977 114.524 509.952 115.027C511.152 115.648 512.366 114.088 513.708 113.936C514.311 113.926 514.893 114.151 515.333 114.563C515.773 114.974 516.036 115.541 516.067 116.142C516.068 116.746 515.925 117.341 515.65 117.879C515.375 118.416 514.975 118.88 514.484 119.232C513.497 119.925 512.405 120.454 511.249 120.799L511.636 121.349C511.976 121.979 512.523 122.47 513.185 122.74C513.847 123.01 514.582 123.041 515.264 122.828C516.802 124.683 532.649 119.533 533.422 116.147C536.741 113.157 539.497 109.596 541.56 105.634C543.622 101.628 544.094 96.9911 542.882 92.6516Z" fill="#2F2E41"/>
<path d="M561.479 162.688C561.159 165.368 558.649 167.368 556.009 167.928C554.667 168.187 553.29 168.21 551.939 167.998C550.62 167.802 549.317 167.512 548.039 167.128C546.459 166.678 544.896 166.172 543.349 165.608C538.931 164.031 534.672 162.039 530.629 159.658C527.572 157.874 524.645 155.875 521.869 153.678C520.429 152.538 519.033 151.348 517.679 150.108L519.369 150.908C517.859 148.878 516.349 146.848 514.839 144.818C513.379 142.858 511.923 140.898 510.469 138.938C510.379 138.818 510.309 138.738 510.279 138.698V138.688C509.609 137.798 508.949 136.908 508.289 136.018C506.299 133.348 504.339 129.428 506.629 127.018C507.118 126.549 507.71 126.202 508.359 126.006C509.007 125.809 509.693 125.769 510.359 125.888C511.077 125.982 511.772 126.205 512.409 126.548C514.159 127.681 515.643 129.179 516.759 130.938C518.319 128.668 521.349 127.828 524.089 128.198C524.239 128.208 524.379 128.228 524.519 128.248C527.369 128.738 528.599 127.198 531.069 128.708C532.219 129.408 532.919 133.008 534.069 133.708C534.719 134.108 537.129 134.708 537.789 135.118C539.089 135.918 538.759 138.908 540.069 139.708C541.039 140.298 543.639 138.708 544.609 139.298C545.629 139.928 547.049 144.088 548.069 144.708C550.099 145.958 551.729 143.678 553.759 144.918C556.369 146.528 559.149 148.318 560.249 151.178C561.219 153.698 559.969 157.148 557.559 157.868C558.711 158.006 559.763 158.586 560.495 159.485C561.226 160.385 561.579 161.533 561.479 162.688Z" fill="#E6E6E6"/>
<path opacity="0.2" d="M543.349 165.608L543.099 168.068C540.265 167.795 537.477 167.167 534.799 166.198C531.275 165.015 528.218 162.742 526.069 159.708C524.709 157.668 523.289 155.638 521.869 153.678C519.509 150.398 517.169 147.338 515.229 144.848C512.859 141.838 511.079 139.658 510.469 138.938C510.379 138.818 510.309 138.738 510.279 138.698L510.249 138.668L510.279 138.688C522.161 153.727 533.385 162.399 543.689 162.188C543.689 162.188 544.899 166.168 543.349 165.608Z" fill="black"/>
<path d="M434.614 45.1801C434.321 46.3106 434.28 47.4916 434.493 48.6398C434.706 49.788 435.168 50.8755 435.847 51.8257C436.526 52.776 437.405 53.5658 438.422 54.1396C439.439 54.7134 440.57 55.0572 441.734 55.1468L455.027 103.911L464.871 92.9247L450.433 47.2278C450.454 45.2617 449.753 43.3563 448.462 41.8727C447.172 40.389 445.383 39.4301 443.433 39.1777C441.483 38.9253 439.508 39.3969 437.883 40.5032C436.257 41.6095 435.094 43.2736 434.614 45.1801Z" fill="#FFB8B8"/>
<path d="M512.659 169.878L512.569 165.438L504.189 149.548L503.879 148.968L503.859 148.938L497.429 136.758L466.402 77.9323L463.069 76.7083L463.236 71.93L463.069 66.7083L459.066 64.0244L457.359 60.7883L454.939 61.4783H454.929L454.859 61.4983L444.279 64.4683H444.269L442.069 65.7083L440.069 71.7083L439.631 74.5489L440.069 79.7083L445.069 80.7083L443.413 85.9988L448.439 101.218C454.729 127.818 463.319 150.778 478.149 163.888L479.369 165.888L489.019 181.678C490.336 183.838 492.263 185.56 494.557 186.626C496.851 187.692 499.409 188.055 501.909 187.668H501.919C503.617 187.405 505.243 186.799 506.699 185.888C508.043 185.06 509.217 183.984 510.159 182.718C511.883 180.43 512.794 177.633 512.749 174.768L512.659 169.878Z" fill="#C898E1"/>
<path d="M687.972 553.897L416.222 554.204C415.906 554.204 415.603 554.079 415.38 553.855C415.156 553.632 415.031 553.329 415.031 553.013C415.031 552.698 415.156 552.395 415.38 552.171C415.603 551.948 415.906 551.823 416.222 551.823L687.972 551.515C688.287 551.515 688.59 551.641 688.814 551.864C689.037 552.087 689.162 552.39 689.162 552.706C689.162 553.022 689.037 553.325 688.814 553.548C688.59 553.771 688.287 553.897 687.972 553.897Z" fill="#CACACA"/>
<path d="M83.6284 153.708C83.6118 138.676 89.3548 124.209 99.6768 113.282L64.2534 64.5262C62.7953 62.5176 60.9214 60.8467 58.7593 59.6275C56.5973 58.4083 54.1979 57.6692 51.7246 57.4608C49.2513 57.2523 46.762 57.5793 44.4265 58.4194C42.0909 59.2596 39.9637 60.5932 38.1899 62.3294C26.0554 74.1584 16.4218 88.3053 9.86137 103.93C3.30092 119.555 -0.0526034 136.338 -9.86969e-07 153.285C9.78168e-05 159.684 0.477181 166.074 1.42726 172.403C1.79998 174.905 2.71398 177.295 4.10554 179.408C5.49711 181.52 7.33273 183.304 9.48439 184.634C11.6118 185.95 14.0008 186.787 16.4848 187.086C18.9688 187.384 21.488 187.137 23.8667 186.362L85.0322 166.488C84.1014 162.292 83.6307 158.006 83.6284 153.708Z" fill="#E5D2F3"/>
<path d="M86.8813 173.027L23.2915 193.689C20.9381 194.45 18.7757 195.707 16.9509 197.377C15.1261 199.046 13.6815 201.089 12.7149 203.365C11.7484 205.642 11.2825 208.1 11.3489 210.572C11.4152 213.044 12.0123 215.474 13.0996 217.695C22.1553 236.067 35.5045 251.987 52.017 264.106C68.5294 276.226 87.719 284.188 107.961 287.319C110.426 287.698 112.944 287.539 115.342 286.853C117.74 286.167 119.962 284.971 121.854 283.346C123.744 281.726 125.26 279.715 126.3 277.453C127.339 275.191 127.877 272.731 127.876 270.242V210.849C118.458 208.405 109.789 203.675 102.637 197.077C95.4862 190.479 90.0741 182.218 86.8813 173.027Z" fill="#E5D2F3"/>
<path d="M278.113 210.136C277.039 207.587 275.429 205.299 273.392 203.427C271.355 201.556 268.939 200.145 266.308 199.29L196.955 176.756C192.906 186.277 186.427 194.567 178.166 200.796C169.906 207.025 160.153 210.974 149.886 212.248V284.507C149.887 287.281 150.488 290.021 151.648 292.541C152.807 295.061 154.497 297.3 156.603 299.106C158.708 300.911 161.179 302.241 163.846 303.002C166.514 303.764 169.314 303.94 172.055 303.518C194.588 300.032 215.95 291.169 234.331 277.678C252.713 264.187 267.573 246.465 277.654 226.014C278.866 223.556 279.534 220.865 279.613 218.125C279.693 215.385 279.181 212.66 278.113 210.136Z" fill="#2B1A2F"/>
<path d="M260.882 44.3934C258.908 42.4605 256.54 40.9759 253.94 40.0405C251.34 39.1052 248.569 38.7412 245.816 38.9732C243.062 39.2053 240.391 40.028 237.984 41.3853C235.578 42.7426 233.492 44.6026 231.869 46.8387L184.454 112.1C189.908 117.568 194.233 124.057 197.179 131.196C200.126 138.335 201.638 145.985 201.628 153.708C201.628 155.145 201.559 156.565 201.458 157.976L276.827 182.465C279.492 183.325 282.313 183.594 285.092 183.253C287.872 182.912 290.543 181.969 292.921 180.49C295.299 179.01 297.326 177.031 298.86 174.688C300.395 172.346 301.4 169.697 301.806 166.926C302.864 159.881 303.395 152.767 303.395 145.643C303.453 126.779 299.72 108.095 292.417 90.7024C285.114 73.3093 274.39 57.5612 260.882 44.3934Z" fill="#9E54AE"/>
<path d="M142.628 94.7083C152.779 94.6969 162.76 97.3176 171.595 102.315L200.535 62.4823C202.01 60.4537 203.028 58.1291 203.517 55.6691C204.007 53.209 203.957 50.6721 203.371 48.2333C202.803 45.841 201.723 43.6003 200.205 41.6659C198.688 39.7316 196.768 38.1496 194.58 37.0292C176.712 27.9422 156.956 23.1918 136.91 23.1626C116.865 23.1334 97.0945 27.8263 79.2007 36.8612C76.9441 37.9998 74.9621 39.6154 73.3918 41.596C71.8216 43.5767 70.7008 45.875 70.1069 48.3319C69.5213 50.7536 69.4693 53.2738 69.9544 55.7177C70.4396 58.1615 71.4503 60.4707 72.9165 62.4852L105.747 107.672C116.2 99.2662 129.215 94.6913 142.628 94.7083Z" fill="#D5B6EB"/>
</g>
<defs>
<clipPath id="clip0_44_78">
<rect width="689.162" height="554.204" fill="white"/>
</clipPath>
</defs>
</svg>
