<svg xmlns="http://www.w3.org/2000/svg" viewBox="0 0 278.62 304.48"><g id="Layer_2" data-name="Layer 2"><g id="Layer_1-2" data-name="Layer 1"><path d="M139.31,304.48a29.11,29.11,0,0,1-13-3.06L15.88,245.87A28.69,28.69,0,0,1,0,220.11V92.54a28.94,28.94,0,0,1,14.41-25L124.9,3.79a29.33,29.33,0,0,1,28.83,0L264.21,67.57a28.94,28.94,0,0,1,14.41,25V220.11a28.68,28.68,0,0,1-15.89,25.76L152.26,301.42a29.11,29.11,0,0,1-12.95,3.06Zm0-288.08a12.38,12.38,0,0,0-6.17,1.66L22.65,81.85a12.36,12.36,0,0,0-6.17,10.69V220.11a12.28,12.28,0,0,0,6.79,11l110.49,55.55a12.52,12.52,0,0,0,11.1,0l110.48-55.55a12.29,12.29,0,0,0,6.81-11V92.54A12.36,12.36,0,0,0,256,81.85L145.49,18.06a12.42,12.42,0,0,0-6.18-1.66Z" stroke="white" fill="white" /><path d="M223.05,210.49A2.8,2.8,0,0,1,219,213l-37.56-19.79-48.17,25.4a2.8,2.8,0,0,1-4.11-2.46V117.54L98.53,133.68a2.82,2.82,0,0,1-2.62,0L76,123.16v28.73L97.21,163l20.34-10.69v23l-19,10a2.8,2.8,0,0,1-2.61,0L57.08,165a2.8,2.8,0,0,1-1.5-2.49V94a2.8,2.8,0,0,1,1.36-2.39,2.84,2.84,0,0,1,2.74-.09l37.54,19.82L145.41,85.9a2.86,2.86,0,0,1,2.75.09,2.73,2.73,0,0,1,1.34,2.39v98.56l30.59-16.15a2.9,2.9,0,0,1,2.6,0l20,10.52V152.59l-21.26-11.15L161,152.18V129.13l19.09-10a2.84,2.84,0,0,1,2.6,0l38.85,20.4a2.76,2.76,0,0,1,1.51,2.46Z" stroke="white" fill="white" /></g></g></svg>